<?xml version="1.0" encoding="utf-8"?>
<svg version="1.1" width="512px" height="512px" style="shape-rendering:geometricPrecision; text-rendering:geometricPrecision; image-rendering:optimizeQuality; fill-rule:evenodd; clip-rule:evenodd" xmlns="http://www.w3.org/2000/svg" xmlns:bx="https://boxy-svg.com">
  <defs>
    <bx:guide x="265.7895251927492" y="237.22308069124767" angle="0"/>
  </defs>
  <g>
    <path style="opacity:1" fill="#000000" d="M 511.5 240.5 C 511.5 250.5 511.5 260.5 511.5 270.5 C 509.13 284.594 504.297 297.927 497 310.5 C 469.881 355.952 433.714 392.452 388.5 420 C 321.52 456.887 251.186 464.887 177.5 444 C 131.95 429.487 92.783 404.987 60 370.5 C 38.843 348.341 21.176 323.675 7 296.5 C 3.853 287.895 1.353 279.228 -0.5 270.5 C -0.5 260.5 -0.5 250.5 -0.5 240.5 C 1.87 226.406 6.703 213.073 14 200.5 C 42.598 152.569 81.098 114.735 129.5 87 C 193.744 54.075 260.744 47.075 330.5 66 C 377.158 80.567 417.325 105.4 451 140.5 C 472.157 162.659 489.824 187.325 504 214.5 C 507.147 223.105 509.647 231.772 511.5 240.5 Z M 237.5 99.5 C 300.684 95.949 356.017 114.782 403.5 156 C 427.515 177.661 447.348 202.494 463 230.5 C 470.961 249.634 469.961 268.301 460 286.5 C 435.5 327 403 359.5 362.5 384 C 303.23 415.352 241.897 420.019 178.5 398 C 121.443 373.945 77.943 334.779 48 280.5 C 40.039 261.366 41.039 242.699 51 224.5 C 78.966 177.532 117.466 142.032 166.5 118 C 189.352 108.205 213.019 102.038 237.5 99.5 Z"/>
  </g>
  <g>
    <path style="opacity:1" fill="#000000" d="M 243.5,148.5 C 289.525,145.761 324.692,163.761 349,202.5C 367,237.833 367,273.167 349,308.5C 318.947,354.259 277.114,370.759 223.5,358C 180.603,342.708 155.77,312.541 149,267.5C 145.773,221.452 163.606,186.286 202.5,162C 215.46,154.957 229.127,150.457 243.5,148.5 Z M 254.5,191.5 C 240.15,192.453 227.15,197.286 215.5,206C 190.963,229.02 185.797,255.853 200,286.5C 220.581,316.805 248.081,325.638 282.5,313C 311.615,296.93 323.115,272.43 317,239.5C 306.851,209.667 286.017,193.667 254.5,191.5 Z"/>
  </g>
</svg>